<svg id="visual" viewBox="0 0 900 600" width="900" height="600" xmlns="http://www.w3.org/2000/svg" xmlns:xlink="http://www.w3.org/1999/xlink" version="1.1"><rect x="0" y="0" width="900" height="600" fill="#001220"></rect><defs><linearGradient id="grad1_0" x1="33.3%" y1="0%" x2="100%" y2="100%"><stop offset="20%" stop-color="#001220" stop-opacity="1"></stop><stop offset="80%" stop-color="#001220" stop-opacity="1"></stop></linearGradient></defs><defs><linearGradient id="grad2_0" x1="0%" y1="0%" x2="66.7%" y2="100%"><stop offset="20%" stop-color="#001220" stop-opacity="1"></stop><stop offset="80%" stop-color="#001220" stop-opacity="1"></stop></linearGradient></defs><g transform="translate(900, 0)"><path d="M0 243.4C-18 231.2 -36 219.1 -58 216.4C-80 213.6 -106 220.3 -120.5 208.7C-135 197.1 -138 167.4 -149.9 149.9C-161.8 132.4 -182.5 127.3 -199.2 115C-215.8 102.7 -228.4 83.3 -235.1 63C-241.8 42.6 -242.6 21.3 -243.4 0L0 0Z" fill="#FF5700"></path></g><g transform="translate(0, 600)"><path d="M0 -243.4C20.4 -238.6 40.7 -233.9 61.1 -228C81.4 -222 101.7 -214.8 116 -200.9C130.3 -187 138.5 -166.5 152 -152C165.5 -137.5 184.3 -129.1 200.1 -115.5C215.8 -101.9 228.4 -83.1 235.1 -63C241.8 -42.9 242.6 -21.4 243.4 0L0 0Z" fill="#FF5700"></path></g></svg>