<svg id="visual" viewBox="0 0 900 450" width="900" height="450" xmlns="http://www.w3.org/2000/svg" xmlns:xlink="http://www.w3.org/1999/xlink" version="1.1"><rect x="0" y="0" width="900" height="450" fill="#001220"></rect><defs><linearGradient id="grad1_0" x1="50%" y1="0%" x2="100%" y2="100%"><stop offset="10%" stop-color="#001220" stop-opacity="1"></stop><stop offset="90%" stop-color="#001220" stop-opacity="1"></stop></linearGradient></defs><defs><linearGradient id="grad2_0" x1="0%" y1="0%" x2="50%" y2="100%"><stop offset="10%" stop-color="#001220" stop-opacity="1"></stop><stop offset="90%" stop-color="#001220" stop-opacity="1"></stop></linearGradient></defs><g transform="translate(900, 0)"><path d="M0 225C-24.1 222.4 -48.2 219.9 -68.3 210.2C-88.4 200.5 -104.4 183.6 -124 170.7C-143.6 157.8 -166.8 148.8 -182 132.3C-197.2 115.7 -204.4 91.6 -210.2 68.3C-216 45 -220.5 22.5 -225 0L0 0Z" fill="#FF5700"></path></g><g transform="translate(0, 450)"><path d="M0 -225C23.6 -221 47.2 -217 66.7 -205.4C86.3 -193.8 101.8 -174.6 114.6 -157.8C127.5 -141 137.7 -126.6 156.1 -113.4C174.6 -100.3 201.1 -88.2 214 -69.5C226.8 -50.8 225.9 -25.4 225 0L0 0Z" fill="#FF5700"></path></g></svg>